<?xml version="1.0" encoding="UTF-8" standalone="no"?>
<!-- Created with Inkscape (http://www.inkscape.org/) -->

<svg
   xmlns:dc="http://purl.org/dc/elements/1.1/"
   xmlns:cc="http://creativecommons.org/ns#"
   xmlns:rdf="http://www.w3.org/1999/02/22-rdf-syntax-ns#"
   xmlns:svg="http://www.w3.org/2000/svg"
   xmlns="http://www.w3.org/2000/svg"
   xmlns:sodipodi="http://sodipodi.sourceforge.net/DTD/sodipodi-0.dtd"
   xmlns:inkscape="http://www.inkscape.org/namespaces/inkscape"
   width="256.58884"
   height="251.86755"
   id="svg2"
   version="1.1"
   inkscape:version="0.48.2 r9819"
   sodipodi:docname="comics.svg"
   inkscape:export-filename="/home/kornklown/Projects/Programming/Python/eComics/icons/comics.png"
   inkscape:export-xdpi="90"
   inkscape:export-ydpi="90">
  <defs
     id="defs4" />
  <sodipodi:namedview
     id="base"
     pagecolor="#ffffff"
     bordercolor="#666666"
     borderopacity="1.0"
     inkscape:pageopacity="0"
     inkscape:pageshadow="2"
     inkscape:zoom="1.28"
     inkscape:cx="109.37851"
     inkscape:cy="78.13488"
     inkscape:document-units="px"
     inkscape:current-layer="g3041"
     showgrid="false"
     inkscape:window-width="1316"
     inkscape:window-height="744"
     inkscape:window-x="50"
     inkscape:window-y="24"
     inkscape:window-maximized="1"
     fit-margin-top="0"
     fit-margin-left="0"
     fit-margin-right="0"
     fit-margin-bottom="0" />
  <metadata
     id="metadata7">
    <rdf:RDF>
      <cc:Work
         rdf:about="">
        <dc:format>image/svg+xml</dc:format>
        <dc:type
           rdf:resource="http://purl.org/dc/dcmitype/StillImage" />
        <dc:title></dc:title>
      </cc:Work>
    </rdf:RDF>
  </metadata>
  <g
     inkscape:label="Layer 1"
     inkscape:groupmode="layer"
     id="layer1"
     transform="translate(0.07056578,-805.66306)">
    <g
       id="g3014"
       transform="matrix(1.7218993,0,0,1.7218993,-532.54363,-394.31236)">
      <g
         id="g3041"
         transform="translate(-6.6371892,18.25227)">
        <g
           id="g4129"
           transform="matrix(10.458435,0,0,10.458435,-2988.2271,-7770.2052)" />
        <g
           id="g3013"
           transform="matrix(1.0057447,0,0,1.0057447,-1.8145959,-4.3114258)">
          <path
             style="fill:#ff0000;stroke:#000000;stroke-width:0.58075404px;stroke-linecap:butt;stroke-linejoin:miter;stroke-opacity:1"
             d="m 318.47634,809.30585 1.57662,3.29991 -3.18991,-0.84331 1.75995,2.71326 -1.75995,0.76997 2.16328,1.35664 -2.12661,4.43653 3.2999,-2.16327 0.40333,2.01662 2.41993,-3.37324 1.42996,2.67659 0.14666,-3.07991 4.36322,2.41992 -1.79662,-3.22657 1.64995,-0.18333 -2.78659,-1.39329 3.07992,-2.01661 -3.26325,0.0367 2.49327,-3.15325 -3.51991,1.35664 -1.39329,-2.41993 -1.50329,2.89658 z"
             id="path3975"
             inkscape:connector-curvature="0"
             sodipodi:nodetypes="ccccccccccccccccccccccc"
             transform="matrix(10.458435,0,0,10.458435,-2988.2271,-7770.2055)" />
          <g
             id="text3977"
             style="font-size:50.23104858px;font-style:normal;font-weight:normal;line-height:125%;letter-spacing:0px;word-spacing:0px;fill:#ffff00;fill-opacity:1;stroke:#000000;stroke-width:0.18700281;stroke-miterlimit:4;font-family:Sans"
             transform="matrix(8.8432024,0,0,18.024076,-2446.9153,-13743.909)">
            <path
               id="path2999"
               style="font-size:5.32152176px;font-variant:normal;font-weight:bold;font-stretch:normal;text-align:start;line-height:125%;letter-spacing:-0.00927331px;writing-mode:lr-tb;text-anchor:start;fill:#ffff00;stroke:#000000;font-family:Comic Sans MS;-inkscape-font-specification:Comic Sans MS Bold"
               d="m 314.84021,806.28167 c -0.0239,0.0172 -0.0865,0.0547 -0.18788,0.11256 0.13304,0.20303 0.36125,0.52966 0.68464,0.97987 0.0536,0.0746 0.0735,0.15728 0.0599,0.24814 -0.0137,0.0908 -0.0606,0.16508 -0.14077,0.22269 -0.0802,0.0576 -0.16622,0.0789 -0.25809,0.0638 -0.0905,-0.0161 -0.16247,-0.0614 -0.21603,-0.13596 l -0.42293,-0.5888 c -0.15664,-0.21807 -0.37451,-0.55107 -0.65359,-0.99899 -0.28554,-0.45394 -0.50441,-0.78834 -0.65661,-1.00321 -0.26135,-0.36681 -0.28446,-0.61574 -0.0693,-0.7468 0.0387,-0.047 0.0983,-0.10367 0.17867,-0.16993 0.0794,-0.0677 0.17954,-0.14496 0.30054,-0.23187 0.27576,-0.19808 0.5988,-0.29468 0.96914,-0.28983 0.41223,0.007 0.72142,0.15365 0.92758,0.44066 0.25871,0.36018 0.32156,0.74906 0.18856,1.16666 -0.11884,0.36903 -0.35342,0.67936 -0.70375,0.931 m -1.03897,-1.66915 c -0.045,0.0323 -0.0846,0.0618 -0.11878,0.0885 -0.0338,0.0243 -0.0616,0.0464 -0.0835,0.0664 0.0475,0.0661 0.11804,0.16582 0.21163,0.29908 0.10936,0.1582 0.27082,0.4112 0.4844,0.759 0.0798,-0.0403 0.13171,-0.069 0.15563,-0.0862 0.21948,-0.15765 0.36429,-0.34057 0.43442,-0.54878 0.0749,-0.22231 0.0467,-0.42492 -0.0847,-0.60782 -0.0859,-0.11959 -0.23466,-0.17376 -0.44627,-0.16253 -0.20396,0.01 -0.38825,0.0741 -0.55286,0.19236"
               inkscape:connector-curvature="0" />
            <path
               id="path3001"
               style="font-size:5.32152176px;font-variant:normal;font-weight:bold;font-stretch:normal;text-align:start;line-height:125%;letter-spacing:-0.00927331px;writing-mode:lr-tb;text-anchor:start;fill:#ffff00;stroke:#000000;font-family:Comic Sans MS;-inkscape-font-specification:Comic Sans MS Bold"
               d="m 319.06593,805.77906 c -0.47532,0.19233 -0.9352,0.21958 -1.37966,0.0817 -0.47475,-0.14801 -0.80601,-0.45405 -0.99379,-0.91812 -0.22091,-0.54597 -0.25132,-1.11296 -0.0912,-1.70098 0.17911,-0.66112 0.56012,-1.1096 1.14302,-1.34547 0.56042,-0.22676 1.03231,-0.26821 1.41568,-0.12434 0.38337,0.14387 0.67934,0.47353 0.88791,0.98899 0.22092,0.54597 0.26368,1.10423 0.12828,1.67478 -0.15564,0.65909 -0.52571,1.10689 -1.11022,1.3434 m -1.05752,-3.23008 c -0.3581,0.1449 -0.59463,0.44243 -0.7096,0.89259 -0.10801,0.42119 -0.0821,0.82929 0.0777,1.22431 0.10786,0.26656 0.29915,0.44144 0.57387,0.52462 0.2641,0.08 0.54789,0.0586 0.85138,-0.0642 0.35328,-0.14295 0.57777,-0.4356 0.67347,-0.87797 0.0888,-0.40406 0.0516,-0.80761 -0.11146,-1.21067 -0.13645,-0.33721 -0.30679,-0.54112 -0.51101,-0.61172 -0.19521,-0.0668 -0.47667,-0.0258 -0.84439,0.12303"
               inkscape:connector-curvature="0" />
            <path
               id="path3003"
               style="font-size:5.32152176px;font-variant:normal;font-weight:bold;font-stretch:normal;text-align:start;line-height:125%;letter-spacing:-0.00927331px;writing-mode:lr-tb;text-anchor:start;fill:#ffff00;stroke:#000000;font-family:Comic Sans MS;-inkscape-font-specification:Comic Sans MS Bold"
               d="m 326.24715,801.02182 c -0.0268,0.0721 -0.0581,0.16079 -0.094,0.26614 -0.0257,0.10151 -0.0677,0.25216 -0.12607,0.45196 -0.0892,0.25817 -0.23193,0.63448 -0.42835,1.12895 -0.2013,0.50332 -0.34497,0.8788 -0.43103,1.12644 -0.0642,0.18442 -0.12537,0.33233 -0.18359,0.44372 -0.076,0.14672 -0.19706,0.2232 -0.36324,0.22943 -0.0987,0.004 -0.18883,-0.0198 -0.27046,-0.0705 -0.0958,-0.0588 -0.1491,-0.13916 -0.15985,-0.24103 -0.0871,-0.19609 -0.14338,-0.35692 -0.16889,-0.48251 -0.0901,-0.36759 -0.21649,-0.92017 -0.37934,-1.65773 -0.0995,0.35216 -0.20895,0.66915 -0.3284,0.95098 -0.17831,0.42272 -0.29332,0.75379 -0.34502,0.99321 0.017,0.0375 0.0263,0.0779 0.0279,0.12117 0.004,0.10732 -0.0403,0.19652 -0.13298,0.2676 -0.081,0.0602 -0.17163,0.0922 -0.27203,0.096 -0.12637,0.005 -0.23229,-0.0234 -0.31778,-0.0843 -0.0927,-0.0676 -0.14305,-0.16279 -0.15111,-0.28557 l -0.0919,-0.30078 c -0.0672,-0.2679 -0.17583,-0.66773 -0.32577,-1.1995 -0.12962,-0.40597 -0.34279,-0.98304 -0.63951,-1.73119 -0.0172,-0.0427 -0.0266,-0.0857 -0.0282,-0.12895 -0.004,-0.10386 0.0328,-0.18758 0.1102,-0.25115 0.0689,-0.058 0.15354,-0.089 0.25395,-0.0927 0.13156,-0.005 0.23836,0.0465 0.32041,0.15441 0.0455,0.059 0.099,0.16704 0.16036,0.32422 0.18793,0.4818 0.40587,1.1861 0.65381,2.11288 0.12584,-0.34274 0.252,-0.74617 0.37849,-1.21028 0.10197,-0.37825 0.18636,-0.6475 0.25316,-0.80775 0.15897,-0.38385 0.32846,-0.57915 0.5085,-0.5859 0.16964,-0.006 0.29688,0.0816 0.38172,0.26392 0.0414,0.0869 0.0846,0.24559 0.12965,0.47618 0.013,0.0706 0.0421,0.24372 0.0871,0.51938 0.0475,0.29639 0.17686,0.83412 0.38807,1.6132 0.16741,-0.43617 0.39089,-1.06426 0.67047,-1.88428 0.0172,-0.0492 0.0563,-0.21012 0.11712,-0.48282 0.0429,-0.19576 0.10037,-0.35132 0.17233,-0.4667 0.0785,-0.12428 0.18706,-0.18902 0.32555,-0.19421 0.10559,-0.004 0.19424,0.0257 0.26595,0.0888 0.0716,0.0615 0.10937,0.14325 0.1132,0.24538 0.001,0.0364 -0.0254,0.13097 -0.0804,0.28384"
               inkscape:connector-curvature="0" />
            <path
               id="path3005"
               style="font-size:5.32152176px;font-variant:normal;font-weight:bold;font-stretch:normal;text-align:start;line-height:125%;letter-spacing:-0.00927331px;writing-mode:lr-tb;text-anchor:start;fill:#ffff00;stroke:#000000;font-family:Comic Sans MS;-inkscape-font-specification:Comic Sans MS Bold"
               d="m 327.4343,804.22288 c -0.0889,-0.0389 -0.15056,-0.0989 -0.18502,-0.18011 -0.0329,-0.0805 -0.0309,-0.16285 0.006,-0.24698 0.0271,-0.0619 0.0649,-0.15501 0.11356,-0.27931 0.0509,-0.1252 0.0899,-0.21875 0.11698,-0.28066 0.0957,-0.21905 0.2409,-0.54693 0.43553,-0.98364 0.19621,-0.43602 0.34218,-0.76355 0.43791,-0.9826 0.0368,-0.0841 0.0967,-0.14113 0.17966,-0.17103 0.0837,-0.0315 0.1692,-0.0281 0.25651,0.01 0.0873,0.0382 0.14783,0.0986 0.18159,0.18144 0.0344,0.0812 0.0333,0.1639 -0.003,0.24803 l -1.10398,2.52621 c -0.0368,0.0841 -0.0967,0.14114 -0.17966,0.17103 -0.0814,0.0306 -0.16657,0.0264 -0.25546,-0.0124 m -0.38485,0.86117 c -0.0952,-0.0416 -0.16193,-0.13126 -0.20008,-0.26892 -0.0337,-0.12626 -0.0328,-0.22986 0.003,-0.31081 0.0361,-0.0825 0.0988,-0.13737 0.18815,-0.16449 0.0894,-0.0271 0.17531,-0.0226 0.25785,0.0134 0.0952,0.0416 0.16113,0.13091 0.19769,0.26787 0.0337,0.12626 0.0332,0.22907 -0.002,0.30843 -0.0354,0.081 -0.0981,0.13579 -0.18814,0.16449 -0.0885,0.0294 -0.17397,0.0261 -0.25651,-0.01"
               inkscape:connector-curvature="0" />
          </g>
          <path
             sodipodi:nodetypes="cc"
             inkscape:connector-curvature="0"
             id="path3997"
             d="m 315.87308,807.32591 c 2.67659,-1.97995 10.00972,-4.8032 13.0163,-1.06331"
             style="fill:none;stroke:none" />
        </g>
      </g>
    </g>
  </g>
</svg>
