<?xml version="1.0" encoding="UTF-8" standalone="no"?>
<svg
   xmlns:dc="http://purl.org/dc/elements/1.1/"
   xmlns:cc="http://creativecommons.org/ns#"
   xmlns:rdf="http://www.w3.org/1999/02/22-rdf-syntax-ns#"
   xmlns:svg="http://www.w3.org/2000/svg"
   xmlns="http://www.w3.org/2000/svg"
   xmlns:sodipodi="http://sodipodi.sourceforge.net/DTD/sodipodi-0.dtd"
   xmlns:inkscape="http://www.inkscape.org/namespaces/inkscape"
   viewBox="0 0 1024 1024"
   id="svg2"
   version="1.1"
   inkscape:version="0.48.5 r10040"
   width="100%"
   height="100%"
   sodipodi:docname="Splash.svg"
   inkscape:export-filename="/home/kornklown/Projects/Programming/eComics/res/images/Splash.png"
   inkscape:export-xdpi="52.591774"
   inkscape:export-ydpi="52.591774">
  <metadata
     id="metadata20">
    <rdf:RDF>
      <cc:Work
         rdf:about="">
        <dc:format>image/svg+xml</dc:format>
        <dc:type
           rdf:resource="http://purl.org/dc/dcmitype/StillImage" />
        <dc:title></dc:title>
      </cc:Work>
    </rdf:RDF>
  </metadata>
  <sodipodi:namedview
     pagecolor="#ffffff"
     bordercolor="#666666"
     borderopacity="1"
     objecttolerance="10"
     gridtolerance="10"
     guidetolerance="10"
     inkscape:pageopacity="0"
     inkscape:pageshadow="2"
     inkscape:window-width="1857"
     inkscape:window-height="1056"
     id="namedview18"
     showgrid="false"
     fit-margin-top="0"
     fit-margin-left="0"
     fit-margin-right="0"
     fit-margin-bottom="0"
     inkscape:zoom="0.63427734"
     inkscape:cx="654.39654"
     inkscape:cy="433.77871"
     inkscape:window-x="63"
     inkscape:window-y="24"
     inkscape:window-maximized="1"
     inkscape:current-layer="g3979" />
  <defs
     id="defs4">
    <filter
       id="filter6"
       color-interpolation-filters="sRGB">
      <feGaussianBlur
         stdDeviation="1.9986"
         id="feGaussianBlur8" />
    </filter>
    <linearGradient
       id="linearGradient10">
      <stop
         offset="0"
         stop-opacity="0"
         id="stop12" />
      <stop
         offset="1"
         id="stop14" />
    </linearGradient>
  </defs>
  <g
     id="g4129"
     transform="matrix(18.008372,0,0,18.008372,-5531.5771,-13746.207)" />
  <g
     transform="matrix(24.940263,0,0,50.83285,-7543.2176,-40267.522)"
     style="font-size:50.23104858px;font-style:normal;font-weight:normal;line-height:125%;letter-spacing:0px;word-spacing:0px;fill:#ffff00;fill-opacity:1;stroke:#000000;stroke-width:0.18700281;stroke-miterlimit:4;font-family:Sans"
     id="text3977">
    <path
       style="fill:none;stroke:none"
       d="m 311.32271,810.53347 c 0.15655,-0.0568 0.58546,-0.13783 0.76132,-0.0305"
       id="path3997"
       inkscape:connector-curvature="0"
       sodipodi:nodetypes="cc" />
    <g
       id="g3987">
      <path
         style="fill:#ff0000;stroke:#000000;stroke-width:1.01747251px;stroke-linecap:butt;stroke-linejoin:miter;stroke-opacity:1"
         d="m 311.70027,795.22317 3.94347,4.04959 -7.97867,-1.03489 4.40203,3.32966 -4.40203,0.94489 5.41084,1.66484 -5.31912,5.44443 8.25378,-2.65472 1.00882,2.47475 6.05278,-4.13957 3.57664,3.28466 0.36683,-3.77961 10.91338,2.96968 -4.49374,-3.95959 4.12689,-0.22498 -6.96988,-1.70981 7.70356,-2.47475 -8.16211,0.045 6.23622,-3.86961 -8.80407,1.66484 -3.48493,-2.96969 -3.76006,3.55463 z"
         id="path3975"
         inkscape:connector-curvature="0"
         sodipodi:nodetypes="ccccccccccccccccccccccc" />
      <g
         transform="matrix(0.03892116,0,0,0.019096,334.11564,794.36268)"
         id="g3811">
        <path
           d="m -290.17881,249.98331 c -26.40176,0.81324 -40.73232,29.63742 -66.57414,32.20512 -38.61754,15.84582 -80.83094,21.68568 -118.96867,38.34173 -25.57555,18.44937 -40.36608,47.06159 -58.1676,72.26212 -15.19936,38.30318 3.81576,78.72091 21.58984,112.53128 15.50771,26.59681 48.2413,30.72576 74.12637,41.92259 50.90583,18.30644 101.6459,38.5304 155.47101,46.47379 31.40106,5.31275 63.27364,8.11994 95.13257,7.50541 44.80986,-9.53708 69.43116,-69.84612 42.2479,-107.32201 -16.93899,-44.59505 5.6236,-90.50359 5.86042,-135.75665 1.28363,-28.47662 -10.89284,-61.04547 -39.55426,-71.58589 -22.45516,-6.91555 -49.68935,1.63254 -67.69863,-18.01206 -12.40125,-9.88772 -26.44381,-21.27823 -43.46481,-18.56543 z m 0.65625,13.9375 c 28.10742,-2.69163 40.45572,34.48517 68.60025,31.63693 21.81162,-0.12332 49.65589,2.79599 59.8703,25.37516 17.93375,41.64066 -3.1176,85.66623 -3.07549,128.38101 -1.11278,22.5741 -20.18914,48.51853 -45.18646,42.24938 -23.9257,-3.71036 -46.24992,-26.74665 -40.52168,-52.076 0.82827,-22.87475 16.67098,-42.60373 15.50079,-65.68335 -24.35348,-2.06214 -19.66212,31.91928 -25.90689,47.83511 -4.06403,20.54021 -5.6601,41.54462 -5.07406,62.46693 -7.70246,22.70503 -37.63382,38.00914 -59.11793,24.29528 -24.06027,-23.36977 -20.65067,-59.72321 -18.34045,-90.24114 -2.43804,-23.68765 22.27458,-40.88079 18.15884,-64.79418 -24.40951,3.73723 -22.93779,33.73032 -29.33792,51.9558 -7.64551,31.9025 -5.79492,66.0433 5.39575,96.89147 15.67193,15.57994 38.0978,32.15397 34.52469,57.15363 -10.34697,19.20277 -33.44816,7.71454 -48.12008,0.83522 -38.28428,-13.22495 -75.50107,-29.75973 -114.65721,-40.42938 -24.33427,-16.53914 -24.29489,-49.22884 -23.26742,-75.54973 -2.93958,-20.2119 -22.01715,7.60162 -20.68178,4.43387 -11.85106,-26.02577 -1.24288,-56.41494 17.61191,-76.13997 13.35545,-18.9593 26.99822,-40.68915 50.80244,-47.31166 23.37073,-7.96649 48.84565,-8.89822 71.07211,-20.36431 25.87576,-8.55596 54.26065,-14.16986 74.32029,-34.17432 4.87883,-4.01581 10.89209,-7.30716 17.43,-6.74575 z m -131.15625,122.21875 c -17.19834,28.41287 -13.11638,63.12698 -21.20377,94.25537 -2.46152,22.27193 5.24032,48.73136 27.52402,58.12412 25.79553,14.41991 62.03004,11.57574 82.22835,-11.15622 -21.38668,-14.37711 -41.93937,17.37921 -63.77895,5.90726 -20.37497,-8.76544 -36.49357,-29.62337 -32.37968,-52.79838 4.38615,-29.76526 11.49386,-59.15161 14.94209,-89.07962 -0.74517,-3.2166 -4.04645,-5.58242 -7.33206,-5.25253 z m 257.90625,98.25 c 7.53679,22.00674 22.34364,46.64195 10.22541,69.79606 -10.10184,25.36697 -40.76078,40.87433 -67.04413,32.63858 -23.52845,6.43022 -13.84114,-25.04529 -8.12774,-35.28681 0.71847,-16.4596 -27.3074,-44.1772 -36.82414,-25.68676 7.31473,13.46635 37.67678,29.61594 12.19965,42.66153 -17.39431,12.91072 -51.25104,4.31537 -51.03306,-20.16787 3.44423,-28.52846 37.03713,-41.82973 62.48704,-36.25112 28.10633,2.37593 61.11728,-2.45576 78.11697,-27.70361 z m -88.34375,0.3125 c 16.41225,-2.27554 7.56296,22.86035 -0.54153,9.48644 -0.79518,-3.16072 -2.10839,-6.8759 0.54153,-9.48644 z"
           id="path16"
           inkscape:connector-curvature="0"
           style="fill:#000000;fill-opacity:1" />
        <g
           id="g3807">
          <path
             inkscape:connector-curvature="0"
             id="path3803"
             d="m -348.08554,564.67983 c -4.29194,-1.64028 -15.32837,-5.86029 -24.52539,-9.37784 l -16.72186,-6.39553 14.49228,-1.32258 c 16.89184,-1.54156 29.81217,-6.53644 38.54514,-14.90121 5.5988,-5.36274 5.82026,-6.1105 2.22958,-7.52856 -7.80312,-3.08163 -18.80015,-1.80917 -31.8564,3.68612 -7.28371,3.06568 -15.8216,5.57396 -18.97308,5.57396 -15.16713,0 -36.57583,-19.24581 -41.01369,-36.87016 -2.13359,-8.47328 -1.36706,-16.29545 5.46984,-55.81781 4.37314,-25.27997 7.64286,-48.11684 7.26605,-50.7486 -1.30253,-9.09727 -8.23576,-7.08387 -13.04502,3.78825 -4.3079,9.73872 -6.48337,20.36228 -14.47637,70.69299 -4.45317,28.04093 -2.50504,42.17998 8.12016,58.93419 3.69792,5.83102 5.40408,10.09554 3.79146,9.47672 -1.61262,-0.61882 -12.96064,-4.32885 -25.21782,-8.2445 -13.56185,-4.33246 -24.62261,-9.345 -28.25534,-12.80484 -10.02977,-9.55246 -14.93558,-24.45579 -16.83401,-51.1399 -1.49029,-20.94737 -2.27324,-24.30732 -5.82249,-24.98663 -2.25537,-0.43167 -6.51549,1.48375 -9.46693,4.25649 -2.95144,2.77273 -6.0776,4.32999 -6.94702,3.46057 -0.86942,-0.86941 -1.96769,-7.81294 -2.44061,-15.43005 -1.18809,-19.13608 4.90967,-34.14187 24.34193,-59.90232 16.2456,-21.53604 27.64285,-33.13293 38.11898,-38.78667 3.33408,-1.79934 18.38375,-6.3395 33.44371,-10.08925 29.61936,-7.37487 85.47069,-25.92906 99.16478,-32.94321 4.66503,-2.38945 12.21254,-7.31928 16.77223,-10.9552 19.79403,-15.78383 29.73718,-15.0192 55.31429,4.25373 l 17.90661,13.49303 26.1318,3.19221 c 34.33118,4.19383 43.7628,9.46036 51.5594,28.7903 6.50155,16.1191 7.08605,42.32982 1.6389,73.49101 -1.92924,11.03643 -4.0984,27.08941 -4.82033,35.67329 -1.9442,23.11588 -5.18485,33.35929 -13.70149,43.30908 -8.71958,10.18684 -18.51355,13.78528 -31.13717,11.4402 -17.31537,-3.21668 -31.033,-14.14239 -37.65272,-29.98934 -4.41876,-10.57803 -3.01312,-24.34095 4.82299,-47.22287 2.97109,-8.6758 6.23114,-21.01938 7.24455,-27.43018 l 1.84257,-11.656 -6.71135,0.67522 c -4.04528,0.40698 -8.3298,2.88943 -10.78557,6.24916 -5.57246,7.62371 -13.10582,47.19727 -14.64282,76.92054 -1.49873,28.98259 -5.22213,38.29109 -18.95055,47.3761 -7.41728,4.90854 -11.8331,6.13385 -22.10535,6.13385 -11.16112,0 -13.72779,-0.85389 -19.66523,-6.54233 -3.7558,-3.59828 -9.05948,-12.12642 -11.78595,-18.95144 -4.39039,-10.99017 -4.92763,-16.15214 -4.69829,-45.14311 l 0.25894,-32.734 9.15103,-19.8657 c 5.43122,-11.79049 9.15102,-23.18379 9.15102,-28.02848 l 0,-8.16277 -7.24614,2.9483 c -10.59261,4.30991 -15.77643,13.7151 -21.87692,39.69205 -4.35882,18.56064 -5.40895,28.88617 -5.30168,52.12963 0.18594,40.29366 3.58068,50.80151 23.05756,71.37109 19.3632,20.44954 24.94556,36.5627 15.82634,45.68191 -5.23575,5.23575 -17.24765,5.76668 -28.98455,1.28109 z"
             style="fill:#ffccaa;fill-opacity:1;stroke:#ffccaa;stroke-width:1.11479044;stroke-miterlimit:4;stroke-opacity:1;stroke-dasharray:none" />
          <path
             inkscape:connector-curvature="0"
             id="path3805"
             d="m -221.87148,585.93555 c -10.88135,-1.7005 -12.90508,-6.53647 -8.96457,-21.42202 4.26306,-16.10398 3.83616,-21.36258 -2.49001,-30.67238 -8.91896,-13.12542 -23.97709,-18.98948 -30.03104,-11.69492 -2.8928,3.48562 -3.16082,3.02913 14.65646,24.96357 7.24944,8.92462 5.89021,13.94225 -5.51294,20.35118 -14.9861,8.42266 -35.1188,5.29208 -43.57104,-6.77518 -10.80684,-15.42892 5.23621,-39.67934 30.80496,-46.56429 5.52717,-1.48831 16.09265,-1.86437 26.97561,-0.96014 12.4625,1.03547 22.7321,0.47557 33.85115,-1.84557 18.73263,-3.91049 26.76013,-7.70338 36.12559,-17.06884 l 6.8537,-6.85369 3.39695,8.13004 c 11.60062,27.76421 12.72948,43.93439 4.25437,60.9417 -11.89954,23.87928 -35.38274,34.30989 -66.34919,29.47054 z"
             style="fill:#ffccaa;fill-opacity:1;stroke:#ffccaa;stroke-width:1.11479044;stroke-miterlimit:4;stroke-opacity:1;stroke-dasharray:none" />
        </g>
      </g>
      <g
         id="g3826"
         transform="matrix(0.84233489,0,0,0.84233489,52.205666,122.45416)">
        <path
           inkscape:connector-curvature="0"
           d="m 314.84021,806.28167 c -0.0239,0.0172 -0.0865,0.0547 -0.18788,0.11256 0.13304,0.20303 0.36125,0.52966 0.68464,0.97987 0.0536,0.0746 0.0735,0.15728 0.0599,0.24814 -0.0137,0.0908 -0.0606,0.16508 -0.14077,0.22269 -0.0802,0.0576 -0.16622,0.0789 -0.25809,0.0638 -0.0905,-0.0161 -0.16247,-0.0614 -0.21603,-0.13596 l -0.42293,-0.5888 c -0.15664,-0.21807 -0.37451,-0.55107 -0.65359,-0.99899 -0.28554,-0.45394 -0.50441,-0.78834 -0.65661,-1.00321 -0.26135,-0.36681 -0.28446,-0.61574 -0.0693,-0.7468 0.0387,-0.047 0.0983,-0.10367 0.17867,-0.16993 0.0794,-0.0677 0.17954,-0.14496 0.30054,-0.23187 0.27576,-0.19808 0.5988,-0.29468 0.96914,-0.28983 0.41223,0.007 0.72142,0.15365 0.92758,0.44066 0.25871,0.36018 0.32156,0.74906 0.18856,1.16666 -0.11884,0.36903 -0.35342,0.67936 -0.70375,0.931 m -1.03897,-1.66915 c -0.045,0.0323 -0.0846,0.0618 -0.11878,0.0885 -0.0338,0.0243 -0.0616,0.0464 -0.0835,0.0664 0.0475,0.0661 0.11804,0.16582 0.21163,0.29908 0.10936,0.1582 0.27082,0.4112 0.4844,0.759 0.0798,-0.0403 0.13171,-0.069 0.15563,-0.0862 0.21948,-0.15765 0.36429,-0.34057 0.43442,-0.54878 0.0749,-0.22231 0.0467,-0.42492 -0.0847,-0.60782 -0.0859,-0.11959 -0.23466,-0.17376 -0.44627,-0.16253 -0.20396,0.01 -0.38825,0.0741 -0.55286,0.19236"
           style="font-size:5.32152176px;font-variant:normal;font-weight:bold;font-stretch:normal;text-align:start;line-height:125%;letter-spacing:-0.00927331px;writing-mode:lr-tb;text-anchor:start;fill:#ffff00;stroke:#000000;font-family:Comic Sans MS;-inkscape-font-specification:Comic Sans MS Bold"
           id="path2999" />
        <path
           inkscape:connector-curvature="0"
           d="m 319.06593,805.77906 c -0.47532,0.19233 -0.9352,0.21958 -1.37966,0.0817 -0.47475,-0.14801 -0.80601,-0.45405 -0.99379,-0.91812 -0.22091,-0.54597 -0.25132,-1.11296 -0.0912,-1.70098 0.17911,-0.66112 0.56012,-1.1096 1.14302,-1.34547 0.56042,-0.22676 1.03231,-0.26821 1.41568,-0.12434 0.38337,0.14387 0.67934,0.47353 0.88791,0.98899 0.22092,0.54597 0.26368,1.10423 0.12828,1.67478 -0.15564,0.65909 -0.52571,1.10689 -1.11022,1.3434 m -1.05752,-3.23008 c -0.3581,0.1449 -0.59463,0.44243 -0.7096,0.89259 -0.10801,0.42119 -0.0821,0.82929 0.0777,1.22431 0.10786,0.26656 0.29915,0.44144 0.57387,0.52462 0.2641,0.08 0.54789,0.0586 0.85138,-0.0642 0.35328,-0.14295 0.57777,-0.4356 0.67347,-0.87797 0.0888,-0.40406 0.0516,-0.80761 -0.11146,-1.21067 -0.13645,-0.33721 -0.30679,-0.54112 -0.51101,-0.61172 -0.19521,-0.0668 -0.47667,-0.0258 -0.84439,0.12303"
           style="font-size:5.32152176px;font-variant:normal;font-weight:bold;font-stretch:normal;text-align:start;line-height:125%;letter-spacing:-0.00927331px;writing-mode:lr-tb;text-anchor:start;fill:#ffff00;stroke:#000000;font-family:Comic Sans MS;-inkscape-font-specification:Comic Sans MS Bold"
           id="path3001" />
        <path
           inkscape:connector-curvature="0"
           d="m 326.24715,801.02182 c -0.0268,0.0721 -0.0581,0.16079 -0.094,0.26614 -0.0257,0.10151 -0.0677,0.25216 -0.12607,0.45196 -0.0892,0.25817 -0.23193,0.63448 -0.42835,1.12895 -0.2013,0.50332 -0.34497,0.8788 -0.43103,1.12644 -0.0642,0.18442 -0.12537,0.33233 -0.18359,0.44372 -0.076,0.14672 -0.19706,0.2232 -0.36324,0.22943 -0.0987,0.004 -0.18883,-0.0198 -0.27046,-0.0705 -0.0958,-0.0588 -0.1491,-0.13916 -0.15985,-0.24103 -0.0871,-0.19609 -0.14338,-0.35692 -0.16889,-0.48251 -0.0901,-0.36759 -0.21649,-0.92017 -0.37934,-1.65773 -0.0995,0.35216 -0.20895,0.66915 -0.3284,0.95098 -0.17831,0.42272 -0.29332,0.75379 -0.34502,0.99321 0.017,0.0375 0.0263,0.0779 0.0279,0.12117 0.004,0.10732 -0.0403,0.19652 -0.13298,0.2676 -0.081,0.0602 -0.17163,0.0922 -0.27203,0.096 -0.12637,0.005 -0.23229,-0.0234 -0.31778,-0.0843 -0.0927,-0.0676 -0.14305,-0.16279 -0.15111,-0.28557 l -0.0919,-0.30078 c -0.0672,-0.2679 -0.17583,-0.66773 -0.32577,-1.1995 -0.12962,-0.40597 -0.34279,-0.98304 -0.63951,-1.73119 -0.0172,-0.0427 -0.0266,-0.0857 -0.0282,-0.12895 -0.004,-0.10386 0.0328,-0.18758 0.1102,-0.25115 0.0689,-0.058 0.15354,-0.089 0.25395,-0.0927 0.13156,-0.005 0.23836,0.0465 0.32041,0.15441 0.0455,0.059 0.099,0.16704 0.16036,0.32422 0.18793,0.4818 0.40587,1.1861 0.65381,2.11288 0.12584,-0.34274 0.252,-0.74617 0.37849,-1.21028 0.10197,-0.37825 0.18636,-0.6475 0.25316,-0.80775 0.15897,-0.38385 0.32846,-0.57915 0.5085,-0.5859 0.16964,-0.006 0.29688,0.0816 0.38172,0.26392 0.0414,0.0869 0.0846,0.24559 0.12965,0.47618 0.013,0.0706 0.0421,0.24372 0.0871,0.51938 0.0475,0.29639 0.17686,0.83412 0.38807,1.6132 0.16741,-0.43617 0.39089,-1.06426 0.67047,-1.88428 0.0172,-0.0492 0.0563,-0.21012 0.11712,-0.48282 0.0429,-0.19576 0.10037,-0.35132 0.17233,-0.4667 0.0785,-0.12428 0.18706,-0.18902 0.32555,-0.19421 0.10559,-0.004 0.19424,0.0257 0.26595,0.0888 0.0716,0.0615 0.10937,0.14325 0.1132,0.24538 0.001,0.0364 -0.0254,0.13097 -0.0804,0.28384"
           style="font-size:5.32152176px;font-variant:normal;font-weight:bold;font-stretch:normal;text-align:start;line-height:125%;letter-spacing:-0.00927331px;writing-mode:lr-tb;text-anchor:start;fill:#ffff00;stroke:#000000;font-family:Comic Sans MS;-inkscape-font-specification:Comic Sans MS Bold"
           id="path3003" />
        <path
           inkscape:connector-curvature="0"
           d="m 327.4343,804.22288 c -0.0889,-0.0389 -0.15056,-0.0989 -0.18502,-0.18011 -0.0329,-0.0805 -0.0309,-0.16285 0.006,-0.24698 0.0271,-0.0619 0.0649,-0.15501 0.11356,-0.27931 0.0509,-0.1252 0.0899,-0.21875 0.11698,-0.28066 0.0957,-0.21905 0.2409,-0.54693 0.43553,-0.98364 0.19621,-0.43602 0.34218,-0.76355 0.43791,-0.9826 0.0368,-0.0841 0.0967,-0.14113 0.17966,-0.17103 0.0837,-0.0315 0.1692,-0.0281 0.25651,0.01 0.0873,0.0382 0.14783,0.0986 0.18159,0.18144 0.0344,0.0812 0.0333,0.1639 -0.003,0.24803 l -1.10398,2.52621 c -0.0368,0.0841 -0.0967,0.14114 -0.17966,0.17103 -0.0814,0.0306 -0.16657,0.0264 -0.25546,-0.0124 m -0.38485,0.86117 c -0.0952,-0.0416 -0.16193,-0.13126 -0.20008,-0.26892 -0.0337,-0.12626 -0.0328,-0.22986 0.003,-0.31081 0.0361,-0.0825 0.0988,-0.13737 0.18815,-0.16449 0.0894,-0.0271 0.17531,-0.0226 0.25785,0.0134 0.0952,0.0416 0.16113,0.13091 0.19769,0.26787 0.0337,0.12626 0.0332,0.22907 -0.002,0.30843 -0.0354,0.081 -0.0981,0.13579 -0.18814,0.16449 -0.0885,0.0294 -0.17397,0.0261 -0.25651,-0.01"
           style="font-size:5.32152176px;font-variant:normal;font-weight:bold;font-stretch:normal;text-align:start;line-height:125%;letter-spacing:-0.00927331px;writing-mode:lr-tb;text-anchor:start;fill:#ffff00;stroke:#000000;font-family:Comic Sans MS;-inkscape-font-specification:Comic Sans MS Bold"
           id="path3005" />
      </g>
    </g>
    <path
       style="fill:#ffff00;stroke:#ff0000;stroke-width:0.28085184;stroke-linecap:butt;stroke-linejoin:miter;stroke-miterlimit:4;stroke-opacity:1;stroke-dasharray:none"
       d="m 314.82596,810.9671 0.88499,-1.02347 0.88498,1.11652 0.82177,-1.33362 1.13784,0.99246 1.95961,-1.64377 0.5057,1.4887 1.4539,-0.83739 1.01141,0.6513 2.33889,-0.99246 1.20105,1.05449 2.59173,-0.80638 -0.25285,0.93044 1.9596,-0.40319 -1.13783,0.8684 4.17207,-0.31014 -1.26426,0.89943 1.0114,0.58927 -22.75671,-3e-5 1.13783,-0.74435 -1.58033,-1.27159 z"
       id="path3813"
       inkscape:connector-curvature="0"
       sodipodi:nodetypes="cccccccccccccccccccccc" />
    <g
       id="g3924">
      <g
         transform="matrix(0.03794425,-0.00635759,0.01295793,0.01861669,314.36041,789.22492)"
         style="font-size:40px;font-style:normal;font-weight:normal;line-height:125%;letter-spacing:0px;word-spacing:0px;fill:#000000;fill-opacity:1;stroke:none;font-family:Sans"
         id="flowRoot3863">
        <g
           id="g3954">
          <g
             id="g3979">
            <g
               id="g4007"
               transform="translate(-4.3853395,-5.7244044)">
              <path
                 style="font-size:50.23104858px;font-style:normal;font-weight:normal;line-height:125%;letter-spacing:0px;word-spacing:0px;fill:#ffff00;fill-opacity:1;stroke:#ff0000;stroke-width:0.28927737;stroke-linecap:butt;stroke-linejoin:miter;stroke-miterlimit:4;stroke-opacity:1;stroke-dasharray:none;font-family:Sans"
                 d="m 304.34781,794.80781 -0.63212,-0.80637 2.14923,0.093 -1.26426,-1.11652 2.71817,0.77536 0.44249,-1.0855 2.02282,0.99246 1.4539,-1.08551 0.0632,1.2716 3.16065,-0.58928 -1.32748,0.99246 2.02282,0.93044 -2.97102,-0.21711 0.63214,0.74435 -2.46532,-0.49623 -1.0114,1.20958 -1.32748,-0.80638 -2.52852,1.64374 0.18964,-1.61276 -2.59174,-0.24812 z"
                 id="path3813-6"
                 inkscape:connector-curvature="0"
                 sodipodi:nodetypes="ccccccccccccccccccccc"
                 transform="matrix(23.601952,8.0600545,-16.427864,48.105135,5545.76,-40499.533)" />
              <path
                 id="path3943"
                 style="font-variant:normal;font-stretch:normal;font-family:Comic Sans MS;-inkscape-font-specification:Comic Sans MS"
                 d="m -277.50781,227.19725 c -2.9297,1.14583 -6.67319,1.71874 -11.23047,1.71875 -0.5599,-1e-5 -1.09376,-0.26693 -1.60156,-0.80079 -0.4948,-0.52083 -0.74219,-1.06119 -0.74219,-1.62109 l 0,-5.68359 c 0,-1.86197 0.11718,-4.51822 0.35156,-7.96875 0.26041,-3.72394 0.40364,-6.41925 0.42969,-8.08594 -0.013,-1.19789 0.0586,-2.98175 0.21484,-5.35156 0.0911,-0.65102 0.30599,-1.0807 0.64453,-1.28907 1.77083,-0.54684 3.78255,-0.82028 6.03516,-0.82031 2.29165,3e-5 4.49217,0.78128 6.60156,2.34375 2.43488,1.7969 3.65232,4.01695 3.65235,6.66016 -3e-5,3.34637 -1.30211,5.98309 -3.90625,7.91015 1.9531,0.83335 3.41143,1.75783 4.375,2.77344 0.97654,1.01564 1.46482,2.12241 1.46484,3.32031 -2e-5,1.57553 -0.85289,3.09897 -2.55859,4.57032 -1.18492,1.04167 -2.42841,1.8164 -3.73047,2.32422 m -5.89844,-25.91797 c -1.41928,2e-5 -2.41537,0.0456 -2.98828,0.13672 l -0.0391,3.41796 -0.39063,7.5586 c 1.84895,0.15626 2.83853,0.22788 2.96875,0.21484 1.96613,-0.15623 3.57421,-0.76821 4.82422,-1.83594 1.34113,-1.15883 2.0117,-2.64972 2.01172,-4.47265 -2e-5,-1.23696 -0.68361,-2.38279 -2.05078,-3.4375 -1.3672,-1.05466 -2.81252,-1.58201 -4.33594,-1.58203 m 2.1875,15.64453 -2.07031,-0.33203 c -0.16928,1e-5 -0.4297,0.013 -0.78125,0.0391 -0.33855,0.013 -0.59897,0.0195 -0.78125,0.0195 -0.70314,10e-6 -1.45183,-0.0586 -2.2461,-0.17578 -0.0781,1.64063 -0.11719,3.10548 -0.11718,4.39453 l 0,4.04297 c 3.41144,-0.11719 6.19139,-0.59896 8.33984,-1.44531 0.91144,-0.35156 1.78384,-0.89844 2.61719,-1.64063 0.79425,-0.67708 1.19138,-1.18489 1.1914,-1.52344 -2e-5,-0.61197 -0.83335,-1.30207 -2.5,-2.07031 -1.25001,-0.58593 -2.46746,-1.02212 -3.65234,-1.30859"
                 inkscape:connector-curvature="0" />
              <path
                 id="path3945"
                 style="font-variant:normal;font-stretch:normal;font-family:Comic Sans MS;-inkscape-font-specification:Comic Sans MS"
                 d="m -245.16406,228.56443 c -1.19794,0 -2.23961,-1.53645 -3.125,-4.60937 -0.33857,-1.17187 -0.76174,-3.22265 -1.26953,-6.15235 -1.32815,0.18231 -3.06643,0.50783 -5.21485,0.97657 l -5.19531,1.07422 c -0.65105,1.70573 -1.76433,4.19922 -3.33984,7.48046 -0.41668,0.72917 -0.98308,1.09375 -1.69922,1.09375 -0.52084,0 -0.98959,-0.1888 -1.40625,-0.5664 -0.40365,-0.37761 -0.60547,-0.84636 -0.60547,-1.40625 0,-0.625 0.98307,-3.0013 2.94922,-7.12891 -0.22136,-0.33853 -0.33204,-0.72916 -0.33203,-1.17187 -1e-5,-1.05468 0.63801,-1.73176 1.91406,-2.03125 1.48437,-2.78645 3.35936,-5.98957 5.625,-9.60938 3.08592,-4.93487 5.00649,-7.40231 5.76172,-7.40234 1.02862,3e-5 1.73175,0.71617 2.10937,2.14844 l 1.23047,6.5625 2.91016,13.57421 1.11328,3.08594 c 0.37758,1.05469 0.56638,1.75782 0.56641,2.10938 -3e-5,0.55989 -0.20185,1.02864 -0.60547,1.40625 -0.40367,0.3776 -0.86591,0.5664 -1.38672,0.5664 m -6.89453,-22.32422 -5.58594,9.00391 c 1.57551,-0.40363 3.96483,-0.89191 7.16797,-1.46484 l -1.58203,-7.53907"
                 inkscape:connector-curvature="0" />
              <path
                 id="path3947"
                 style="font-variant:normal;font-stretch:normal;font-family:Comic Sans MS;-inkscape-font-specification:Comic Sans MS"
                 d="m -210.18359,223.64256 c -3e-5,0.625 -0.1042,1.66667 -0.3125,3.125 -0.20837,1.3151 -0.90498,1.97265 -2.08985,1.97265 -0.71617,0 -1.56903,-0.46875 -2.55859,-1.40625 -5.2995,-5.01301 -11.38022,-12.24608 -18.24219,-21.69921 l -0.0977,4.43359 -0.0586,4.45312 c -10e-6,1.08075 0.0195,2.70184 0.0586,4.86329 0.0521,2.16146 0.0781,3.78906 0.0781,4.88281 -1e-5,3.5026 -0.67709,5.2539 -2.03125,5.2539 -0.71615,0 -1.28256,-0.22786 -1.69922,-0.68359 -0.37761,-0.40365 -0.56641,-0.88542 -0.5664,-1.44531 -1e-5,-0.54688 0.0391,-1.3737 0.11718,-2.48047 0.0911,-1.10677 0.13672,-1.93359 0.13672,-2.48047 0,-0.80729 0.026,-2.01171 0.0781,-3.61328 0.0521,-1.61457 0.0781,-2.82551 0.0781,-3.63281 0,-0.85937 -0.0195,-2.15494 -0.0586,-3.88672 -0.0391,-1.74478 -0.0586,-3.04686 -0.0586,-3.90625 0,-0.82029 -0.0781,-2.03774 -0.23437,-3.65235 -0.15625,-1.62757 -0.23438,-2.85153 -0.23438,-3.67187 0,-0.59893 0.25391,-1.14581 0.76172,-1.64063 0.52083,-0.49476 1.10677,-0.74215 1.75782,-0.74218 0.69009,3e-5 1.54296,0.75523 2.55859,2.26562 3.24218,4.8568 6.15884,8.89325 8.75,12.10938 3.08592,3.81511 6.47133,7.46094 10.15625,10.9375 0.039,-0.55989 0.039,-1.38672 0,-2.48047 l -0.0586,-2.46094 c -3e-5,-5.71613 -0.22139,-10.26691 -0.66407,-13.65234 -0.0521,-0.33852 -0.22789,-1.02211 -0.52734,-2.05078 -0.26044,-0.8854 -0.39065,-1.5755 -0.39063,-2.07032 -2e-5,-1.51038 0.69008,-2.26559 2.07032,-2.26562 2.26559,3e-5 3.3984,4.22528 3.39843,12.67578 -3e-5,1.44533 -0.0196,3.60678 -0.0586,6.48437 -0.0391,2.8646 -0.0586,5.01954 -0.0586,6.46485"
                 inkscape:connector-curvature="0" />
              <path
                 id="path3949"
                 style="font-variant:normal;font-stretch:normal;font-family:Comic Sans MS;-inkscape-font-specification:Comic Sans MS"
                 d="m -183.01562,216.16209 c -0.80732,3.9974 -2.50654,7.19401 -5.09766,9.58984 -2.57814,2.38281 -5.62502,3.57422 -9.14063,3.57422 -3.20313,0 -5.60547,-0.89193 -7.20703,-2.67578 -1.60156,-1.79687 -2.40234,-4.48567 -2.40234,-8.06641 0,-3.37238 0.79427,-6.84243 2.38281,-10.41015 1.60156,-3.58071 3.65234,-6.47133 6.15235,-8.67188 1.66665,-1.47132 3.43097,-2.207 5.29296,-2.20703 1.18488,3e-5 2.74738,0.39066 4.6875,1.17188 2.36977,0.93752 3.55467,1.97268 3.55469,3.10547 -2e-5,0.53388 -0.19533,1.00914 -0.58594,1.42578 -0.39064,0.41669 -0.85939,0.62502 -1.40625,0.625 -0.28648,2e-5 -0.69012,-0.16274 -1.21093,-0.48828 -1.99221,-1.21092 -3.6719,-1.81638 -5.03907,-1.81641 -0.97657,3e-5 -1.99871,0.50784 -3.0664,1.52344 -0.53387,0.50783 -1.3021,1.43231 -2.30469,2.77343 -3.00782,3.9844 -4.51172,8.30731 -4.51172,12.96875 0,2.44793 0.3776,4.16017 1.13281,5.13672 0.82031,1.06771 2.33072,1.60157 4.53125,1.60157 2.33072,0 4.35546,-0.73568 6.07422,-2.20704 1.80988,-1.56249 3.0729,-3.79556 3.78907,-6.69921 -3.60679,0.1823 -6.69924,0.87891 -9.27735,2.08984 -0.29949,0.14324 -0.59246,0.21485 -0.8789,0.21484 -0.57293,1e-5 -1.04819,-0.22134 -1.42579,-0.66406 -0.35157,-0.40364 -0.52735,-0.87238 -0.52734,-1.40625 -1e-5,-0.71613 0.34504,-1.28905 1.03516,-1.71875 2.81248,-1.71874 7.66274,-2.57811 14.55078,-2.57812 0.55987,1e-5 1.02862,0.18881 1.40625,0.5664 0.37758,0.37762 0.56638,0.85288 0.5664,1.42578 -2e-5,0.84637 -0.3581,1.45184 -1.07421,1.81641"
                 inkscape:connector-curvature="0" />
              <path
                 id="path3951"
                 style="font-variant:normal;font-stretch:normal;font-family:Comic Sans MS;-inkscape-font-specification:Comic Sans MS"
                 d="m -174.75391,198.36912 0,21.73828 c 0,1.15886 -0.57943,1.73829 -1.73828,1.73828 -1.15886,1e-5 -1.73828,-0.57942 -1.73828,-1.73828 0,-0.53384 -0.0195,-1.32811 -0.0586,-2.38281 -0.026,-1.0677 -0.0391,-1.86197 -0.0391,-2.38281 -1e-5,-1.88801 0.013,-4.71353 0.0391,-8.47657 0.0391,-3.77601 0.0586,-6.60804 0.0586,-8.49609 0,-1.15882 0.57942,-1.73825 1.73828,-1.73828 1.15885,3e-5 1.73828,0.57946 1.73828,1.73828 m 0.0195,29.16016 c -1e-5,0.46875 -0.18881,0.87239 -0.56641,1.21093 -0.36459,0.35157 -0.78126,0.52735 -1.25,0.52735 -0.52084,0 -1.04167,-0.33855 -1.5625,-1.01563 -0.50782,-0.63802 -0.76172,-1.22395 -0.76172,-1.75781 0,-0.46875 0.18229,-0.87239 0.54688,-1.21094 0.3776,-0.33854 0.80728,-0.50781 1.28906,-0.50781 0.50781,0 1.02864,0.33854 1.5625,1.01563 0.49478,0.63802 0.74218,1.21744 0.74219,1.73828"
                 inkscape:connector-curvature="0" />
            </g>
          </g>
        </g>
      </g>
    </g>
    <g
       id="g3917"
       transform="translate(0.31606559,-0.52724529)">
      <g
         transform="matrix(0.03705396,0.00751611,-0.01531923,0.01817988,350.71356,792.98689)"
         style="font-size:40px;font-style:normal;font-weight:normal;line-height:125%;letter-spacing:0px;word-spacing:0px;fill:#000000;fill-opacity:1;stroke:none;font-family:Sans"
         id="flowRoot3863-9">
        <g
           id="g3972">
          <g
             id="g4000"
             transform="translate(-2.2923936,-5.5448127)">
            <path
               transform="matrix(23.048171,-9.528808,19.421483,46.976438,-23484.287,-33909.817)"
               sodipodi:nodetypes="ccccccccccccccccccccc"
               inkscape:connector-curvature="0"
               id="path3813-6-7"
               d="m 336.19995,793.86374 -0.0693,-0.81612 1.48908,0.76604 0.61611,-0.68986 0.93496,0.90458 2.80446,-0.95108 -1.1437,1.36964 1.98379,0.1829 -0.77868,0.57234 0.82795,0.79833 -1.91591,-0.28065 0.0403,1.29884 -1.4968,-0.97038 -1.03256,0.79484 -0.42532,-0.9852 -1.81839,0.61188 0.21452,-0.97362 -2.47601,0.0814 1.43622,-0.6607 -1.86555,-1.14995 z"
               style="font-size:50.23104858px;font-style:normal;font-weight:normal;line-height:125%;letter-spacing:0px;word-spacing:0px;fill:#ffff00;fill-opacity:1;stroke:#ff0000;stroke-width:0.28085184;stroke-linecap:butt;stroke-linejoin:miter;stroke-miterlimit:4;stroke-opacity:1;stroke-dasharray:none;font-family:Sans" />
            <path
               d="m -277.50781,227.19725 c -2.9297,1.14583 -6.67319,1.71874 -11.23047,1.71875 -0.5599,-1e-5 -1.09376,-0.26693 -1.60156,-0.80079 -0.4948,-0.52083 -0.74219,-1.06119 -0.74219,-1.62109 l 0,-5.68359 c 0,-1.86197 0.11718,-4.51822 0.35156,-7.96875 0.26041,-3.72394 0.40364,-6.41925 0.42969,-8.08594 -0.013,-1.19789 0.0586,-2.98175 0.21484,-5.35156 0.0911,-0.65102 0.30599,-1.0807 0.64453,-1.28907 1.77083,-0.54684 3.78255,-0.82028 6.03516,-0.82031 2.29165,3e-5 4.49217,0.78128 6.60156,2.34375 2.43488,1.7969 3.65232,4.01695 3.65235,6.66016 -3e-5,3.34637 -1.30211,5.98309 -3.90625,7.91015 1.9531,0.83335 3.41143,1.75783 4.375,2.77344 0.97654,1.01564 1.46482,2.12241 1.46484,3.32031 -2e-5,1.57553 -0.85289,3.09897 -2.55859,4.57032 -1.18492,1.04167 -2.42841,1.8164 -3.73047,2.32422 m -5.89844,-25.91797 c -1.41928,2e-5 -2.41537,0.0456 -2.98828,0.13672 l -0.0391,3.41796 -0.39063,7.5586 c 1.84895,0.15626 2.83853,0.22788 2.96875,0.21484 1.96613,-0.15623 3.57421,-0.76821 4.82422,-1.83594 1.34113,-1.15883 2.0117,-2.64972 2.01172,-4.47265 -2e-5,-1.23696 -0.68361,-2.38279 -2.05078,-3.4375 -1.3672,-1.05466 -2.81252,-1.58201 -4.33594,-1.58203 m 2.1875,15.64453 -2.07031,-0.33203 c -0.16928,1e-5 -0.4297,0.013 -0.78125,0.0391 -0.33855,0.013 -0.59897,0.0195 -0.78125,0.0195 -0.70314,10e-6 -1.45183,-0.0586 -2.2461,-0.17578 -0.0781,1.64063 -0.11719,3.10548 -0.11718,4.39453 l 0,4.04297 c 3.41144,-0.11719 6.19139,-0.59896 8.33984,-1.44531 0.91144,-0.35156 1.78384,-0.89844 2.61719,-1.64063 0.79425,-0.67708 1.19138,-1.18489 1.1914,-1.52344 -2e-5,-0.61197 -0.83335,-1.30207 -2.5,-2.07031 -1.25001,-0.58593 -2.46746,-1.02212 -3.65234,-1.30859"
               style="font-variant:normal;font-stretch:normal;font-family:Comic Sans MS;-inkscape-font-specification:Comic Sans MS"
               id="path3963"
               inkscape:connector-curvature="0" />
            <path
               d="m -245.16406,228.56443 c -1.19794,0 -2.23961,-1.53645 -3.125,-4.60937 -0.33857,-1.17187 -0.76174,-3.22265 -1.26953,-6.15235 -1.32815,0.18231 -3.06643,0.50783 -5.21485,0.97657 l -5.19531,1.07422 c -0.65105,1.70573 -1.76433,4.19922 -3.33984,7.48046 -0.41668,0.72917 -0.98308,1.09375 -1.69922,1.09375 -0.52084,0 -0.98959,-0.1888 -1.40625,-0.5664 -0.40365,-0.37761 -0.60547,-0.84636 -0.60547,-1.40625 0,-0.625 0.98307,-3.0013 2.94922,-7.12891 -0.22136,-0.33853 -0.33204,-0.72916 -0.33203,-1.17187 -1e-5,-1.05468 0.63801,-1.73176 1.91406,-2.03125 1.48437,-2.78645 3.35936,-5.98957 5.625,-9.60938 3.08592,-4.93487 5.00649,-7.40231 5.76172,-7.40234 1.02862,3e-5 1.73175,0.71617 2.10937,2.14844 l 1.23047,6.5625 2.91016,13.57421 1.11328,3.08594 c 0.37758,1.05469 0.56638,1.75782 0.56641,2.10938 -3e-5,0.55989 -0.20185,1.02864 -0.60547,1.40625 -0.40367,0.3776 -0.86591,0.5664 -1.38672,0.5664 m -6.89453,-22.32422 -5.58594,9.00391 c 1.57551,-0.40363 3.96483,-0.89191 7.16797,-1.46484 l -1.58203,-7.53907"
               style="font-variant:normal;font-stretch:normal;font-family:Comic Sans MS;-inkscape-font-specification:Comic Sans MS"
               id="path3965"
               inkscape:connector-curvature="0" />
            <path
               d="m -208.54297,229.59959 c -0.70315,0 -1.28258,-0.36459 -1.73828,-1.09375 -0.39065,-0.625 -0.74222,-1.66667 -1.05469,-3.125 l -0.70312,-3.35938 c -0.53388,-2.08332 -1.38024,-6.67967 -2.53906,-13.78906 l -3.90625,11.77735 -1.15235,3.71093 c -0.46877,1.47136 -0.95705,2.67579 -1.46484,3.61328 -0.5469,0.98959 -1.28257,1.48438 -2.20703,1.48438 -0.76825,0 -1.37372,-0.41667 -1.81641,-1.25 -0.28647,-0.54688 -0.54689,-1.24349 -0.78125,-2.08984 l -0.56641,-2.16797 c -1.31511,-4.59635 -2.47397,-9.51822 -3.47656,-14.76563 l -0.70312,3.4961 -2.51953,10.3125 c -0.10418,1.21094 -0.4297,3.0013 -0.97657,5.37109 -0.39063,1.01562 -1.03516,1.52344 -1.93359,1.52344 -0.63803,0 -1.14584,-0.22787 -1.52344,-0.6836 -0.32552,-0.39062 -0.48828,-0.87239 -0.48828,-1.44531 0,-2.17448 0.44922,-4.84374 1.34766,-8.00781 l 2.14843,-7.8711 1.13282,-6.15234 c 0.57291,-2.87758 1.17837,-4.75909 1.8164,-5.64453 0.52083,-0.75518 1.16536,-1.13278 1.9336,-1.13281 0.84634,3e-5 1.47785,0.4818 1.89453,1.44531 0.5078,1.15888 1.05467,3.52216 1.64062,7.08984 0.69009,4.28387 1.76431,8.91929 3.22266,13.90625 1.92706,-5.01301 3.59373,-10.23435 5,-15.66406 l 0.58594,-2.85156 c 0.23435,-1.14581 0.54034,-2.07029 0.91797,-2.77344 0.50778,-0.96351 1.2044,-1.44528 2.08984,-1.44531 1.11976,3e-5 1.97263,1.08076 2.55859,3.24219 0.20831,0.74221 0.46221,2.27867 0.76172,4.60937 0.7682,5.88543 1.72523,10.91147 2.8711,15.07813 l 0.95703,3.35937 c 0.49475,1.79688 0.74215,2.90365 0.74218,3.32031 -3e-5,0.5599 -0.21487,1.02865 -0.64453,1.40625 -0.4167,0.37761 -0.89196,0.56641 -1.42578,0.56641"
               style="font-variant:normal;font-stretch:normal;font-family:Comic Sans MS;-inkscape-font-specification:Comic Sans MS"
               id="path3967"
               inkscape:connector-curvature="0" />
            <path
               d="m -198.50391,198.36912 0,21.73828 c 0,1.15886 -0.57943,1.73829 -1.73828,1.73828 -1.15886,1e-5 -1.73828,-0.57942 -1.73828,-1.73828 0,-0.53384 -0.0195,-1.32811 -0.0586,-2.38281 -0.026,-1.0677 -0.0391,-1.86197 -0.0391,-2.38281 -1e-5,-1.88801 0.013,-4.71353 0.0391,-8.47657 0.0391,-3.77601 0.0586,-6.60804 0.0586,-8.49609 0,-1.15882 0.57942,-1.73825 1.73828,-1.73828 1.15885,3e-5 1.73828,0.57946 1.73828,1.73828 m 0.0195,29.16016 c -1e-5,0.46875 -0.18881,0.87239 -0.56641,1.21093 -0.36459,0.35157 -0.78126,0.52735 -1.25,0.52735 -0.52084,0 -1.04167,-0.33855 -1.5625,-1.01563 -0.50782,-0.63802 -0.76172,-1.22395 -0.76172,-1.75781 0,-0.46875 0.18229,-0.87239 0.54688,-1.21094 0.3776,-0.33854 0.80728,-0.50781 1.28906,-0.50781 0.50781,0 1.02864,0.33854 1.5625,1.01563 0.49478,0.63802 0.74218,1.21744 0.74219,1.73828"
               style="font-variant:normal;font-stretch:normal;font-family:Comic Sans MS;-inkscape-font-specification:Comic Sans MS"
               id="path3969"
               inkscape:connector-curvature="0" />
          </g>
        </g>
      </g>
    </g>
  </g>
</svg>
